<?xml version="1.0" encoding="utf-8"?>
<svg xmlns="http://www.w3.org/2000/svg"
	xmlns:xlink="http://www.w3.org/1999/xlink"
	width="16px" height="15px" viewBox="0 0 16 15">
<path fillRule="evenodd" d="M 15.3 0.11C 14.58-0.28 13.77 0.47 13.3 0.91 12.22 1.97 11.3 3.19 10.27 4.29 9.14 5.51 8.08 6.73 6.91 7.93 6.25 8.59 5.53 9.31 5.08 10.14 4.08 9.17 3.22 8.12 2.11 7.26 1.3 6.65-0.03 6.21-0 7.68 0.05 9.59 1.75 11.64 3 12.94 3.53 13.5 4.22 14.08 5.03 14.11 6 14.16 7 13 7.58 12.36 8.61 11.25 9.44 10.01 10.39 8.87 11.61 7.37 12.86 5.9 14.05 4.38 14.8 3.43 17.16 1.11 15.3 0.11ZM 1.22 7.57C 1.19 7.57 1.17 7.57 1.11 7.59 1 7.57 0.92 7.54 0.8 7.48 0.8 7.48 0.8 7.48 0.8 7.48 0.89 7.43 1.03 7.46 1.22 7.57Z" fill="rgb(235,145,79)"/></svg>