<?xml version="1.0" encoding="utf-8"?>
<svg xmlns="http://www.w3.org/2000/svg"
	xmlns:xlink="http://www.w3.org/1999/xlink"
	width="50px" height="47px" viewBox="0 0 50 47">
<path fillRule="evenodd" d="M 50 27.15C 50 23.09 46.92 19.25 41.55 16.61 30.53 10.62 28.45 0.81 28.43 0.71 28.43 0.71 28.29 0 28.29 0 28.29 0 21.71 0 21.71 0 21.71 0 21.57 0.71 21.57 0.71 21.55 0.81 19.51 10.6 8.47 16.61 3.09 19.25-0 23.09-0 27.15-0 34.14 8.84 39.71 21.49 40.69 21.99 40.73 22.44 40.76 22.88 40.79 22.88 40.79 18.82 41.47 18.82 41.47 18.35 41.55 18.04 42 18.11 42.48 18.19 42.91 18.55 43.21 18.96 43.21 19.01 43.21 19.06 43.21 19.11 43.2 19.11 43.2 22.37 42.65 22.37 42.65 22.37 42.65 20.77 44.27 20.77 44.27 20.43 44.61 20.43 45.17 20.77 45.51 20.94 45.68 21.16 45.77 21.38 45.77 21.6 45.77 21.82 45.68 21.99 45.51 21.99 45.51 24.14 43.33 24.14 43.33 24.14 43.33 24.14 46.12 24.14 46.12 24.14 46.6 24.52 46.99 25 46.99 25.48 46.99 25.86 46.6 25.86 46.12 25.86 46.12 25.86 43.33 25.86 43.33 25.86 43.33 28.01 45.51 28.01 45.51 28.18 45.68 28.4 45.77 28.62 45.77 28.84 45.77 29.06 45.68 29.23 45.51 29.57 45.17 29.57 44.62 29.23 44.27 29.23 44.27 27.62 42.64 27.62 42.64 27.62 42.64 30.87 43.3 30.87 43.3 30.92 43.31 30.98 43.32 31.04 43.32 31.44 43.32 31.8 43.03 31.88 42.61 31.97 42.14 31.67 41.68 31.2 41.58 31.2 41.58 27.41 40.81 27.41 40.81 27.75 40.79 28.11 40.78 28.5 40.75 41.16 40.02 50 34.43 50 27.15ZM 24.97 7.23C 25.29 8.87 25.73 10.88 26.35 13.27 26.75 14.8 27.2 16.17 27.67 17.36 27.97 18.09 28.08 18.35 28.28 18.82 28.45 19.22 28.69 19.77 29.16 20.9 29.89 22.64 30.24 24.96 30.16 27.62 29.98 33.97 27.46 38.41 25.09 39.11 25.01 39.11 24.93 39.11 24.85 39.11 22.48 38.4 19.97 33.96 19.79 27.62 19.71 24.96 20.06 22.64 20.79 20.9 21.26 19.77 21.49 19.22 21.67 18.82 21.87 18.35 21.98 18.09 22.27 17.36 22.75 16.17 23.2 14.79 23.59 13.27 24.22 10.88 24.66 8.87 24.97 7.23ZM 31.89 27.67C 31.97 24.72 31.59 22.21 30.75 20.21 30.27 19.07 30.03 18.52 29.86 18.11 29.67 17.66 29.55 17.4 29.27 16.7 28.82 15.58 28.4 14.28 28.02 12.82 27.42 10.54 27.01 8.64 26.7 7.07 27.83 9.72 29.77 13.33 32.86 16.48 33.57 17.2 33.85 17.46 34.34 17.93 34.76 18.32 35.33 18.86 36.47 19.98 38.19 21.65 38.97 23.77 38.79 26.29 38.43 31.57 33.96 35.95 28.96 38.07 30.65 35.64 31.77 31.89 31.89 27.67ZM 21.93 12.82C 21.55 14.27 21.13 15.58 20.68 16.7 20.39 17.41 20.28 17.67 20.09 18.12 19.91 18.52 19.67 19.08 19.2 20.21 18.36 22.21 17.98 24.72 18.06 27.67 18.18 31.87 19.29 35.61 20.97 38.04 16 35.9 11.57 31.54 11.21 26.29 11.03 23.77 11.81 21.65 13.53 19.98 14.67 18.86 15.24 18.32 15.66 17.93 16.15 17.46 16.43 17.2 17.14 16.48 20.15 13.42 22.06 9.92 23.2 7.29 22.9 8.82 22.49 10.65 21.93 12.82ZM 40.75 18.17C 40.75 18.17 40.78 18.18 40.78 18.18 45.55 20.52 48.28 23.79 48.28 27.15 48.28 32.76 41.43 37.38 31.6 38.7 36.28 36.09 40.15 31.66 40.51 26.41 40.72 23.39 39.74 20.73 37.67 18.71 36.52 17.59 35.94 17.05 35.52 16.65 35.04 16.2 34.77 15.94 34.08 15.24 30.32 11.42 28.37 6.83 27.54 4.44 27.13 3.26 26.8 2.39 26.47 1.76 26.47 1.76 26.91 1.76 26.91 1.76 27.6 4.24 30.59 12.64 40.75 18.17ZM 1.72 27.15C 1.72 23.79 4.45 20.52 9.25 18.17 19.41 12.64 22.4 4.24 23.09 1.76 23.09 1.76 23.53 1.76 23.53 1.76 23.2 2.39 22.87 3.26 22.46 4.44 21.63 6.83 19.68 11.42 15.92 15.24 15.23 15.94 14.96 16.2 14.48 16.65 14.06 17.04 13.49 17.59 12.33 18.71 10.26 20.73 9.28 23.39 9.48 26.41 9.84 31.54 13.55 35.9 18.1 38.53 8.43 36.99 1.72 32.46 1.72 27.15Z" fill="rgb(235,145,79)"/></svg>