<?xml version="1.0" encoding="utf-8"?>
<svg xmlns="http://www.w3.org/2000/svg"
	xmlns:xlink="http://www.w3.org/1999/xlink"
	width="53px" height="52px" viewBox="0 0 53 52">
<path fillRule="evenodd" d="M 51.63 32.14C 49.67 40.3 44.72 46.08 36.92 49.33 31.57 51.56 26.18 52 22.75 52 21.38 52 20.32 51.93 19.71 51.87 19.71 51.87 19.42 51.85 19.42 51.85 17.59 51.69 15.69 51.52 13.86 50.91 5.38 48.09 2.07 41.04 1.94 40.74 1.94 40.74 1.9 40.65 1.9 40.65-0.01 35.13 1.15 32.05 2.46 30.43 4.16 28.32 7.06 27.48 10.82 27.97 13.19 28.28 15.45 27.37 16.89 25.52 18.32 23.67 18.65 21.24 17.78 19.02 14.96 11.84 17.23 6.14 24.16 2.96 29.71 0.41 34.71-0 39.03 1.73 44.91 4.09 48.33 9.99 50.17 14.54 52.5 20.32 53.01 26.41 51.63 32.14ZM 48.32 15.29C 46.64 11.11 43.53 5.68 38.29 3.59 34.5 2.07 30.02 2.47 24.99 4.78 18.99 7.53 17.18 12.07 19.62 18.28 20.76 21.17 20.32 24.34 18.45 26.75 16.58 29.16 13.64 30.36 10.56 29.95 7.52 29.55 5.25 30.15 4 31.69 2.61 33.41 2.53 36.34 3.76 39.94 4.02 40.48 7.15 46.57 14.48 49.01 16.1 49.55 17.8 49.7 19.6 49.86 19.6 49.86 19.89 49.88 19.89 49.88 21.92 50.06 29.08 50.43 36.16 47.48 43.34 44.49 47.9 39.18 49.7 31.67 50.98 26.35 50.5 20.69 48.32 15.29ZM 22.94 48.02C 22 48.02 21.09 47.98 20.25 47.9 20.25 47.9 19.97 47.88 19.97 47.88 18.31 47.73 16.73 47.59 15.29 47.11 8.96 45 6.16 40.04 5.67 39.07 5.67 39.07 5.61 38.93 5.61 38.93 4.63 36.01 4.62 33.66 5.59 32.3 6.49 31.01 8.46 30.49 11.07 30.84 14.59 31.31 17.99 29.79 19.95 26.88 21.69 24.32 22.02 21.16 20.87 18.22 17.7 10.16 23.56 7.47 25.48 6.59 35.1 2.18 42.18 5.43 46.5 16.12 47.63 18.93 48.24 21.81 48.37 24.67 48.38 24.73 48.38 24.79 48.38 24.86 48.46 27 48.27 29.14 47.77 31.22 46.55 36.27 41.71 48.02 22.94 48.02ZM 27.47 45.75C 39.16 44.31 43.57 37.36 45.22 32.79 43.48 32.31 38.73 31.7 30.59 35.63 27.09 37.32 23.97 37.61 21.34 36.49 20.55 36.15 19.86 35.71 19.28 35.22 20.04 37.2 21.37 38.92 23.12 40.13 24.65 41.19 27.31 43.04 27.47 45.75ZM 16.52 32.09C 14.75 32.81 12.8 33.09 10.81 32.82 9.03 32.59 7.64 32.84 7.21 33.45 6.77 34.07 6.62 35.64 7.47 38.22 7.87 38.98 10.39 43.37 15.92 45.21 17.14 45.62 18.6 45.75 20.15 45.89 20.15 45.89 20.43 45.91 20.43 45.91 21.21 45.98 22.06 46.02 22.94 46.02 23.82 46.02 24.66 45.98 25.48 45.93 25.42 44.47 24.04 43.19 21.99 41.78 19.13 39.79 17.2 36.66 16.7 33.18 16.64 32.79 16.58 32.42 16.52 32.09ZM 44.65 16.87C 41.92 10.1 38.07 6.67 33.19 6.67 31.14 6.67 28.82 7.25 26.31 8.41 23.31 9.78 20.53 11.94 22.71 17.49 23.63 19.83 23.76 22.28 23.15 24.58 23.9 25.54 26.65 28.27 32.59 26.37 33.91 25.69 41.79 21.76 46.24 23.02 45.99 20.96 45.47 18.9 44.65 16.87ZM 33.44 28.18C 33.39 28.21 33.34 28.23 33.28 28.25 31.59 28.8 30.1 29.02 28.79 29.02 25.61 29.02 23.54 27.71 22.38 26.64 22.15 27.1 21.89 27.56 21.6 28.01 20.76 29.24 19.7 30.26 18.5 31.06 19 32.05 20.12 33.81 22.13 34.66 24.21 35.53 26.77 35.25 29.73 33.82 38.39 29.64 43.64 30.26 45.8 30.87 45.81 30.83 45.83 30.79 45.84 30.75 46.27 28.96 46.45 27.12 46.41 25.26 44.13 23.64 37.35 26.13 33.44 28.18ZM 34.14 19.22C 31.4 19.22 29.17 16.97 29.17 14.22 29.17 11.46 31.4 9.22 34.14 9.22 36.88 9.22 39.1 11.46 39.1 14.22 39.1 16.97 36.88 19.22 34.14 19.22ZM 34.14 11.22C 32.49 11.22 31.16 12.56 31.16 14.22 31.16 15.87 32.49 17.22 34.14 17.22 35.78 17.22 37.12 15.87 37.12 14.22 37.12 12.56 35.78 11.22 34.14 11.22Z" fill="rgb(235,145,79)"/></svg>