<?xml version="1.0" encoding="utf-8"?>
<svg xmlns="http://www.w3.org/2000/svg"
	xmlns:xlink="http://www.w3.org/1999/xlink"
	width="56px" height="48px" viewBox="0 0 56 48">
<path fillRule="evenodd" d="M 52.18 48C 52.18 48 4.09 48 4.09 48 1.84 48-0 46.14-0 43.86-0 43.86-0 19.34-0 19.34-0 18.29 0.39 17.29 1.1 16.52 1.1 16.52 4.05 13.3 4.05 13.3 3.65 12.95 3.4 12.44 3.4 11.86 3.4 11.86 3.4 9.92 3.4 9.92 3.4 9.51 3.53 9.14 3.75 8.82 3.53 8.51 3.4 8.13 3.4 7.72 3.4 7.72 3.4 5.78 3.4 5.78 3.4 4.72 4.26 3.86 5.32 3.86 5.32 3.86 10.48 3.86 10.48 3.86 10.48 3.86 10.48 1.93 10.48 1.93 10.48 0.86 11.34-0 12.4-0 12.4-0 18.34-0 18.34-0 19.39-0 20.25 0.86 20.25 1.93 20.25 1.93 20.25 3.86 20.25 3.86 20.25 3.86 25.42 3.86 25.42 3.86 26.47 3.86 27.33 4.72 27.33 5.78 27.33 5.78 27.33 7.72 27.33 7.72 27.33 8.13 27.2 8.51 26.98 8.82 27.2 9.14 27.33 9.51 27.33 9.92 27.33 9.92 27.33 11.86 27.33 11.86 27.33 12.44 27.08 12.95 26.68 13.3 26.68 13.3 29.64 16.52 29.64 16.52 29.85 16.75 30.04 17.01 30.2 17.29 30.2 17.29 31.41 15.96 31.41 15.96 31.05 15.61 30.82 15.12 30.82 14.57 30.82 14.57 30.82 12.96 30.82 12.96 30.82 12.55 30.95 12.17 31.16 11.86 30.95 11.54 30.82 11.17 30.82 10.76 30.82 10.76 30.82 9.14 30.82 9.14 30.82 8.08 31.68 7.22 32.73 7.22 32.73 7.22 37.3 7.22 37.3 7.22 37.3 7.22 37.3 5.59 37.3 5.59 37.3 4.53 38.16 3.67 39.22 3.67 39.22 3.67 44.48 3.67 44.48 3.67 45.54 3.67 46.39 4.53 46.39 5.59 46.39 5.59 46.39 7.22 46.39 7.22 46.39 7.22 50.97 7.22 50.97 7.22 52.02 7.22 52.88 8.08 52.88 9.14 52.88 9.14 52.88 10.76 52.88 10.76 52.88 11.17 52.75 11.54 52.54 11.86 52.75 12.17 52.88 12.55 52.88 12.96 52.88 12.96 52.88 14.57 52.88 14.57 52.88 15.12 52.65 15.61 52.29 15.96 52.29 15.96 54.98 18.9 54.98 18.9 55.64 19.62 56 20.56 56 21.54 56 21.54 56 44.12 56 44.12 56 46.26 54.29 48 52.18 48ZM 39.52 46.35C 39.52 46.35 47.59 46.35 47.59 46.35 47.59 46.35 42.58 41.31 42.58 41.31 42.24 40.97 41.79 40.78 41.3 40.78 40.82 40.78 40.37 40.97 40.03 41.31 40.03 41.31 37.27 44.08 37.27 44.08 37.27 44.08 39.52 46.35 39.52 46.35ZM 18.61 1.93C 18.61 1.78 18.48 1.65 18.34 1.65 18.34 1.65 12.4 1.65 12.4 1.65 12.25 1.65 12.12 1.78 12.12 1.93 12.12 1.93 12.12 3.86 12.12 3.86 12.12 3.86 18.61 3.86 18.61 3.86 18.61 3.86 18.61 1.93 18.61 1.93ZM 25.69 5.78C 25.69 5.63 25.56 5.51 25.42 5.51 25.42 5.51 5.32 5.51 5.32 5.51 5.17 5.51 5.04 5.63 5.04 5.78 5.04 5.78 5.04 7.72 5.04 7.72 5.04 7.87 5.17 8 5.32 8 5.32 8 25.42 8 25.42 8 25.56 8 25.69 7.87 25.69 7.72 25.69 7.72 25.69 5.78 25.69 5.78ZM 25.69 9.92C 25.69 9.77 25.56 9.65 25.42 9.65 25.42 9.65 5.32 9.65 5.32 9.65 5.17 9.65 5.04 9.77 5.04 9.92 5.04 9.92 5.04 11.86 5.04 11.86 5.04 12.01 5.17 12.14 5.32 12.14 5.32 12.14 25.42 12.14 25.42 12.14 25.56 12.14 25.69 12.01 25.69 11.86 25.69 11.86 25.69 9.92 25.69 9.92ZM 29.09 19.34C 29.09 18.7 28.86 18.1 28.43 17.64 28.43 17.64 24.89 13.79 24.89 13.79 24.89 13.79 5.84 13.79 5.84 13.79 5.84 13.79 2.3 17.64 2.3 17.64 1.87 18.1 1.64 18.7 1.64 19.34 1.64 19.34 1.64 25.07 1.64 25.07 1.64 25.07 7.2 25.07 7.2 25.07 8.51 21.83 11.68 19.54 15.37 19.54 16.87 19.54 18.35 19.93 19.65 20.66 20.04 20.88 20.19 21.38 19.97 21.78 19.75 22.18 19.25 22.32 18.85 22.1 17.79 21.51 16.59 21.19 15.37 21.19 11.42 21.19 8.21 24.41 8.21 28.36 8.21 32.31 11.42 35.52 15.37 35.52 19.31 35.52 22.53 32.31 22.53 28.36 22.53 26.88 22.08 25.46 21.24 24.26 20.97 23.88 21.06 23.37 21.43 23.1 21.8 22.84 22.32 22.93 22.58 23.3 22.96 23.86 23.28 24.45 23.53 25.07 23.53 25.07 29.09 25.07 29.09 25.07 29.09 25.07 29.09 19.34 29.09 19.34ZM 29.09 26.72C 29.09 26.72 24.01 26.72 24.01 26.72 24.11 27.26 24.17 27.8 24.17 28.36 24.17 33.22 20.22 37.18 15.37 37.18 10.51 37.18 6.57 33.22 6.57 28.36 6.57 27.8 6.62 27.25 6.72 26.72 6.72 26.72 1.64 26.72 1.64 26.72 1.64 26.72 1.64 43.86 1.64 43.86 1.64 45.23 2.74 46.35 4.09 46.35 4.09 46.35 4.09 46.35 4.09 46.35 4.09 46.35 16.59 46.35 16.59 46.35 16.59 46.35 25.65 37.24 25.65 37.24 26.29 36.59 27.14 36.24 28.06 36.24 28.41 36.24 28.76 36.29 29.09 36.4 29.09 36.4 29.09 26.72 29.09 26.72ZM 44.75 5.59C 44.75 5.44 44.63 5.32 44.48 5.32 44.48 5.32 39.22 5.32 39.22 5.32 39.07 5.32 38.95 5.44 38.95 5.59 38.95 5.59 38.95 7.22 38.95 7.22 38.95 7.22 44.75 7.22 44.75 7.22 44.75 7.22 44.75 5.59 44.75 5.59ZM 51.24 12.96C 51.24 12.81 51.12 12.68 50.97 12.68 50.97 12.68 48.12 12.68 48.12 12.68 47.67 12.68 47.3 12.31 47.3 11.86 47.3 11.4 47.67 11.03 48.12 11.03 48.12 11.03 50.97 11.03 50.97 11.03 51.12 11.03 51.24 10.91 51.24 10.76 51.24 10.76 51.24 9.14 51.24 9.14 51.24 9 51.12 8.87 50.97 8.87 50.97 8.87 32.73 8.87 32.73 8.87 32.58 8.87 32.46 9 32.46 9.14 32.46 9.14 32.46 10.76 32.46 10.76 32.46 10.91 32.58 11.03 32.73 11.03 32.73 11.03 44.73 11.03 44.73 11.03 45.19 11.03 45.55 11.4 45.55 11.86 45.55 12.31 45.19 12.68 44.73 12.68 44.73 12.68 32.73 12.68 32.73 12.68 32.58 12.68 32.46 12.81 32.46 12.96 32.46 12.96 32.46 14.57 32.46 14.57 32.46 14.72 32.58 14.84 32.73 14.84 32.73 14.84 50.97 14.84 50.97 14.84 51.12 14.84 51.24 14.72 51.24 14.57 51.24 14.57 51.24 12.96 51.24 12.96ZM 54.36 21.54C 54.36 20.97 54.15 20.43 53.77 20.02 53.77 20.02 50.55 16.49 50.55 16.49 50.55 16.49 33.15 16.49 33.15 16.49 33.15 16.49 30.73 19.14 30.73 19.14 30.73 19.21 30.73 19.27 30.73 19.34 30.73 19.34 30.73 26.75 30.73 26.75 30.73 26.75 34.32 26.75 34.32 26.75 35.54 23.77 38.45 21.66 41.85 21.66 45.25 21.66 48.16 23.77 49.38 26.75 49.38 26.75 50.09 26.75 50.09 26.75 50.55 26.75 50.91 27.12 50.91 27.58 50.91 28.03 50.55 28.4 50.09 28.4 50.09 28.4 49.85 28.4 49.85 28.4 49.94 28.87 49.98 29.36 49.98 29.85 49.98 34.36 46.33 38.03 41.85 38.03 37.36 38.03 33.72 34.36 33.72 29.85 33.72 29.36 33.76 28.87 33.85 28.4 33.85 28.4 30.73 28.4 30.73 28.4 30.73 28.4 30.73 37.51 30.73 37.51 30.73 37.51 33.46 40.25 33.46 40.25 33.78 40.58 33.78 41.1 33.46 41.42 33.14 41.74 32.62 41.74 32.3 41.42 32.3 41.42 29.31 38.41 29.31 38.41 28.98 38.07 28.53 37.89 28.06 37.89 27.58 37.89 27.14 38.07 26.81 38.41 26.81 38.41 18.91 46.35 18.91 46.35 18.91 46.35 37.2 46.35 37.2 46.35 37.2 46.35 34.49 43.62 34.49 43.62 34.17 43.3 34.17 42.78 34.49 42.45 34.81 42.13 35.33 42.13 35.65 42.45 35.65 42.45 36.11 42.92 36.11 42.92 36.11 42.92 38.87 40.14 38.87 40.14 39.52 39.49 40.38 39.13 41.3 39.13 42.23 39.13 43.09 39.49 43.74 40.14 43.74 40.14 49.91 46.35 49.91 46.35 49.91 46.35 52.18 46.35 52.18 46.35 53.38 46.35 54.36 45.35 54.36 44.12 54.36 44.12 54.36 28.4 54.36 28.4 54.36 28.4 53.7 28.4 53.7 28.4 53.25 28.4 52.88 28.03 52.88 27.58 52.88 27.12 53.25 26.75 53.7 26.75 53.7 26.75 54.36 26.75 54.36 26.75 54.36 26.75 54.36 21.54 54.36 21.54ZM 35.36 29.85C 35.36 33.45 38.27 36.38 41.85 36.38 45.43 36.38 48.34 33.45 48.34 29.85 48.34 26.25 45.43 23.32 41.85 23.32 38.27 23.32 35.36 26.25 35.36 29.85ZM 38.83 28.03C 38.83 28.03 44.86 28.03 44.86 28.03 45.32 28.03 45.69 28.4 45.69 28.86 45.69 29.31 45.32 29.68 44.86 29.68 44.86 29.68 38.83 29.68 38.83 29.68 38.38 29.68 38.01 29.31 38.01 28.86 38.01 28.4 38.38 28.03 38.83 28.03ZM 39.86 31.23C 39.86 31.23 43.84 31.23 43.84 31.23 44.3 31.23 44.66 31.6 44.66 32.06 44.66 32.51 44.3 32.88 43.84 32.88 43.84 32.88 39.86 32.88 39.86 32.88 39.4 32.88 39.03 32.51 39.03 32.06 39.03 31.6 39.4 31.23 39.86 31.23ZM 53.7 30.79C 53.7 31.01 53.61 31.22 53.46 31.38 53.3 31.53 53.09 31.62 52.88 31.62 52.66 31.62 52.45 31.53 52.3 31.38 52.14 31.22 52.06 31.01 52.06 30.79 52.06 30.58 52.14 30.36 52.3 30.21 52.45 30.06 52.66 29.97 52.88 29.97 53.09 29.97 53.3 30.06 53.46 30.21 53.61 30.36 53.7 30.58 53.7 30.79ZM 52 34.23C 51.85 34.38 51.64 34.47 51.42 34.47 51.2 34.47 50.99 34.38 50.84 34.23 50.69 34.07 50.6 33.86 50.6 33.64 50.6 33.43 50.69 33.21 50.84 33.06 50.99 32.9 51.2 32.82 51.42 32.82 51.64 32.82 51.85 32.9 52 33.06 52.15 33.21 52.24 33.43 52.24 33.64 52.24 33.86 52.15 34.07 52 34.23ZM 51.42 38.51C 51.64 38.51 51.85 38.6 52 38.75 52.15 38.91 52.24 39.12 52.24 39.34 52.24 39.56 52.15 39.77 52 39.92 51.85 40.08 51.64 40.16 51.42 40.16 51.21 40.16 50.99 40.08 50.84 39.92 50.69 39.77 50.6 39.55 50.6 39.34 50.6 39.12 50.69 38.91 50.84 38.75 50.99 38.6 51.21 38.51 51.42 38.51ZM 52.05 42.26C 52.27 42.26 52.48 42.35 52.63 42.51 52.79 42.66 52.87 42.87 52.87 43.09 52.87 43.31 52.79 43.52 52.63 43.67 52.48 43.83 52.27 43.91 52.05 43.91 51.84 43.91 51.63 43.83 51.47 43.67 51.32 43.52 51.23 43.31 51.23 43.09 51.23 42.87 51.32 42.66 51.47 42.51 51.63 42.35 51.84 42.26 52.05 42.26ZM 52.06 36.49C 52.06 36.27 52.14 36.06 52.3 35.91 52.45 35.75 52.66 35.66 52.88 35.66 53.09 35.66 53.3 35.75 53.46 35.91 53.61 36.06 53.7 36.27 53.7 36.49 53.7 36.71 53.61 36.92 53.46 37.07 53.3 37.23 53.09 37.31 52.88 37.31 52.66 37.31 52.45 37.23 52.3 37.07 52.14 36.92 52.06 36.71 52.06 36.49ZM 32.08 44.87C 31.86 44.87 31.65 44.79 31.5 44.63 31.35 44.48 31.26 44.27 31.26 44.05 31.26 43.83 31.35 43.62 31.5 43.46 31.65 43.31 31.86 43.22 32.08 43.22 32.3 43.22 32.51 43.31 32.66 43.46 32.81 43.62 32.9 43.83 32.9 44.05 32.9 44.27 32.81 44.48 32.66 44.63 32.51 44.79 32.3 44.87 32.08 44.87ZM 27.94 41.75C 27.72 41.75 27.51 41.66 27.36 41.51 27.2 41.35 27.12 41.14 27.12 40.92 27.12 40.7 27.2 40.49 27.36 40.34 27.51 40.19 27.72 40.1 27.94 40.1 28.15 40.1 28.36 40.19 28.52 40.34 28.67 40.49 28.76 40.7 28.76 40.92 28.76 41.14 28.67 41.35 28.52 41.51 28.36 41.66 28.15 41.75 27.94 41.75ZM 28 43.99C 28.15 44.14 28.24 44.35 28.24 44.57 28.24 44.79 28.15 45 28 45.15 27.85 45.31 27.63 45.39 27.42 45.39 27.2 45.39 26.99 45.31 26.84 45.15 26.69 45 26.6 44.79 26.6 44.57 26.6 44.35 26.69 44.14 26.84 43.99 26.99 43.83 27.2 43.74 27.42 43.74 27.63 43.74 27.85 43.83 28 43.99ZM 23.66 44.87C 23.45 44.87 23.24 44.79 23.08 44.63 22.93 44.48 22.84 44.27 22.84 44.05 22.84 43.83 22.93 43.62 23.08 43.46 23.24 43.31 23.45 43.22 23.66 43.22 23.88 43.22 24.09 43.31 24.25 43.46 24.4 43.62 24.48 43.83 24.48 44.05 24.48 44.27 24.4 44.48 24.25 44.63 24.09 44.79 23.88 44.87 23.66 44.87ZM 27.47 34.4C 27.32 34.25 27.23 34.04 27.23 33.82 27.23 33.6 27.32 33.39 27.47 33.24 27.62 33.08 27.83 32.99 28.05 32.99 28.26 32.99 28.47 33.08 28.63 33.24 28.78 33.39 28.87 33.6 28.87 33.82 28.87 34.04 28.78 34.25 28.63 34.4 28.47 34.56 28.26 34.65 28.05 34.65 27.83 34.65 27.62 34.56 27.47 34.4ZM 27.4 30.21C 27.18 30.21 26.97 30.12 26.82 29.97 26.67 29.82 26.58 29.6 26.58 29.39 26.58 29.17 26.67 28.96 26.82 28.8 26.97 28.65 27.18 28.56 27.4 28.56 27.61 28.56 27.83 28.65 27.98 28.8 28.13 28.96 28.22 29.17 28.22 29.39 28.22 29.6 28.13 29.82 27.98 29.97 27.83 30.12 27.61 30.21 27.4 30.21ZM 26.39 32.42C 26.24 32.57 26.03 32.66 25.81 32.66 25.6 32.66 25.38 32.57 25.23 32.42 25.08 32.26 24.99 32.05 24.99 31.83 24.99 31.62 25.08 31.4 25.23 31.25 25.38 31.1 25.6 31.01 25.81 31.01 26.03 31.01 26.24 31.1 26.39 31.25 26.54 31.4 26.63 31.62 26.63 31.83 26.63 32.05 26.54 32.26 26.39 32.42ZM 25.77 34.43C 25.99 34.43 26.2 34.52 26.35 34.67 26.5 34.83 26.59 35.04 26.59 35.26 26.59 35.47 26.5 35.69 26.35 35.84 26.2 35.99 25.99 36.08 25.77 36.08 25.55 36.08 25.34 35.99 25.19 35.84 25.04 35.69 24.95 35.47 24.95 35.26 24.95 35.04 25.04 34.82 25.19 34.67 25.34 34.52 25.55 34.43 25.77 34.43ZM 18.38 27.8C 18.38 27.8 12.35 27.8 12.35 27.8 11.9 27.8 11.53 27.43 11.53 26.98 11.53 26.52 11.9 26.15 12.35 26.15 12.35 26.15 18.38 26.15 18.38 26.15 18.84 26.15 19.2 26.52 19.2 26.98 19.2 27.43 18.84 27.8 18.38 27.8ZM 13.37 29.35C 13.37 29.35 17.36 29.35 17.36 29.35 17.81 29.35 18.18 29.72 18.18 30.18 18.18 30.64 17.81 31 17.36 31 17.36 31 13.37 31 13.37 31 12.92 31 12.55 30.64 12.55 30.18 12.55 29.72 12.92 29.35 13.37 29.35ZM 41.06 44.27C 41.21 44.43 41.3 44.64 41.3 44.86 41.3 45.07 41.21 45.29 41.06 45.44 40.9 45.59 40.69 45.68 40.48 45.68 40.26 45.68 40.05 45.59 39.9 45.44 39.74 45.29 39.66 45.07 39.66 44.86 39.66 44.64 39.74 44.43 39.9 44.27 40.05 44.12 40.26 44.03 40.48 44.03 40.69 44.03 40.9 44.12 41.06 44.27ZM 40.49 42.67C 40.34 42.52 40.26 42.3 40.26 42.09 40.26 41.87 40.34 41.66 40.49 41.5 40.65 41.35 40.86 41.26 41.08 41.26 41.29 41.26 41.5 41.35 41.66 41.5 41.81 41.66 41.9 41.87 41.9 42.09 41.9 42.3 41.81 42.52 41.66 42.67 41.5 42.82 41.29 42.91 41.08 42.91 40.86 42.91 40.65 42.82 40.49 42.67ZM 43.59 43.19C 43.81 43.19 44.02 43.28 44.17 43.43 44.32 43.58 44.41 43.8 44.41 44.01 44.41 44.23 44.32 44.44 44.17 44.6 44.02 44.75 43.81 44.84 43.59 44.84 43.37 44.84 43.16 44.75 43.01 44.6 42.86 44.44 42.77 44.23 42.77 44.01 42.77 43.8 42.86 43.58 43.01 43.43 43.16 43.28 43.37 43.19 43.59 43.19Z" fill="rgb(235,145,79)"/></svg>