<?xml version="1.0" encoding="utf-8"?>
<svg xmlns="http://www.w3.org/2000/svg"
	xmlns:xlink="http://www.w3.org/1999/xlink"
	width="7px" height="12px" viewBox="0 0 7 12">
<path fillRule="evenodd" d="M 0.59 5.75C 0.59 5.75 5.97 0.07 5.97 0.07 6.1-0.06 6.3-0.06 6.43 0.07 6.56 0.21 6.56 0.42 6.43 0.56 6.43 0.56 1.28 5.99 1.28 5.99 1.28 5.99 6.43 11.42 6.43 11.42 6.56 11.55 6.56 11.77 6.43 11.9 6.37 11.96 6.28 12 6.2 12 6.12 12 6.04 11.97 5.97 11.9 5.97 11.9 0.6 6.23 0.6 6.23 0.47 6.1 0.47 5.88 0.59 5.75Z" fill="rgb(255,255,255)"/></svg>