<?xml version="1.0"?>
<!--Icons from directory ""-->
<svg xmlns="http://www.w3.org/2000/svg" width="59" height="215" viewBox="0 0 59 215"><svg xmlns:xlink="http://www.w3.org/1999/xlink" viewBox="0 0 53 52" width="53" height="52" id="icon1" y="0"><path fill="#eb914f" fillRule="evenodd" d="m51.63 32.14c-1.96 8.16-6.91 13.94-14.71 17.19-5.35 2.23-10.74 2.67-14.17 2.67-1.37 0-2.43-0.07-3.04-0.13l-0.29-0.02c-1.83-0.16-3.73-0.33-5.56-0.94-8.48-2.82-11.79-9.87-11.92-10.17l-0.04-0.09c-1.91-5.52-0.75-8.6 0.56-10.22 1.7-2.11 4.6-2.95 8.36-2.46 2.37 0.31 4.63-0.6 6.07-2.45 1.43-1.85 1.76-4.28 0.89-6.5-2.82-7.18-0.55-12.88 6.38-16.06 5.55-2.55 10.55-2.96 14.87-1.23 5.88 2.36 9.3 8.26 11.14 12.81 2.33 5.78 2.84 11.87 1.46 17.6zm-3.31-16.85c-1.68-4.18-4.79-9.61-10.03-11.7-3.79-1.52-8.27-1.12-13.3 1.19-6 2.75-7.81 7.29-5.37 13.5 1.14 2.89 0.7 6.06-1.17 8.47s-4.81 3.61-7.89 3.2c-3.04-0.4-5.31 0.2-6.56 1.74-1.39 1.72-1.47 4.65-0.24 8.25 0.26 0.54 3.39 6.63 10.72 9.07 1.62 0.54 3.32 0.69 5.12 0.85l0.29 0.02c2.03 0.18 9.19 0.55 16.27-2.4 7.18-2.99 11.74-8.3 13.54-15.81 1.28-5.32 0.8-10.98-1.38-16.38zm-25.38 32.73c-0.94 0-1.85-0.04-2.69-0.12l-0.28-0.02c-1.66-0.15-3.24-0.29-4.68-0.77-6.33-2.11-9.13-7.07-9.62-8.04l-0.06-0.14c-0.98-2.92-0.99-5.27-0.02-6.63 0.9-1.29 2.87-1.81 5.48-1.46 3.52 0.47 6.92-1.05 8.88-3.96 1.74-2.56 2.07-5.72 0.92-8.66-3.17-8.06 2.69-10.75 4.61-11.63 9.62-4.41 16.7-1.16 21.02 9.53 1.13 2.81 1.74 5.69 1.87 8.55 0.01 0.06 0.01 0.12 0.01 0.19 0.08 2.14-0.11 4.28-0.61 6.36-1.22 5.05-6.06 16.8-24.83 16.8zm4.53-2.27c11.69-1.44 16.1-8.39 17.75-12.96-1.74-0.48-6.49-1.09-14.63 2.84-3.5 1.69-6.62 1.98-9.25 0.86-0.79-0.34-1.48-0.78-2.06-1.27 0.76 1.98 2.09 3.7 3.84 4.91 1.53 1.06 4.19 2.91 4.35 5.62zm-10.95-13.66c-1.77 0.72-3.72 1-5.71 0.73-1.78-0.23-3.17 0.02-3.6 0.63-0.44 0.62-0.59 2.19 0.26 4.77 0.4 0.76 2.92 5.15 8.45 6.99 1.22 0.41 2.68 0.54 4.23 0.68l0.28 0.02c0.78 0.07 1.63 0.11 2.51 0.11s1.72-0.04 2.54-0.09c-0.06-1.46-1.44-2.74-3.49-4.15-2.86-1.99-4.79-5.12-5.29-8.6-0.06-0.39-0.12-0.76-0.18-1.09zm28.13-15.22c-2.73-6.77-6.58-10.2-11.46-10.2-2.05 0-4.37 0.58-6.88 1.74-3 1.37-5.78 3.53-3.6 9.08 0.92 2.34 1.05 4.79 0.44 7.09 0.75 0.96 3.5 3.69 9.44 1.79 1.32-0.68 9.2-4.61 13.65-3.35-0.25-2.06-0.77-4.12-1.59-6.15zm-11.21 11.31c-0.05 0.03-0.1 0.05-0.16 0.07-1.69 0.55-3.18 0.77-4.49 0.77-3.18 0-5.25-1.31-6.41-2.38-0.23 0.46-0.49 0.92-0.78 1.37-0.84 1.23-1.9 2.25-3.1 3.05 0.5 0.99 1.62 2.75 3.63 3.6 2.08 0.87 4.64 0.59 7.6-0.84 8.66-4.18 13.91-3.56 16.07-2.95 0.01-0.04 0.03-0.08 0.04-0.12 0.43-1.79 0.61-3.63 0.57-5.49-2.28-1.62-9.06 0.87-12.97 2.92zm0.7-8.96c-2.74 0-4.97-2.25-4.97-5 0-2.76 2.23-5 4.97-5s4.96 2.24 4.96 5c0 2.75-2.22 5-4.96 5zm0-8c-1.65 0-2.98 1.34-2.98 3 0 1.65 1.33 3 2.98 3 1.64 0 2.98-1.35 2.98-3 0-1.66-1.34-3-2.98-3z"/></svg><svg xmlns:xlink="http://www.w3.org/1999/xlink" viewBox="0 0 56 48" width="56" height="48" id="icon2" y="52"><path fill="#eb914f" fillRule="evenodd" d="m52.18 48h-48.09c-2.25 0-4.09-1.86-4.09-4.14v-24.52c0-1.05 0.39-2.05 1.1-2.82 0 0 2.95-3.22 2.95-3.22-0.4-0.35-0.65-0.86-0.65-1.44v-1.94c0-0.41 0.13-0.78 0.35-1.1-0.22-0.31-0.35-0.69-0.35-1.1v-1.94c0-1.06 0.86-1.92 1.92-1.92h5.16v-1.93c0-1.07 0.86-1.93 1.92-1.93h5.94c1.05 0 1.91 0.86 1.91 1.93v1.93h5.17c1.05 0 1.91 0.86 1.91 1.92v1.94c0 0.41-0.13 0.79-0.35 1.1 0.22 0.32 0.35 0.69 0.35 1.1v1.94c0 0.58-0.25 1.09-0.65 1.44 0 0 2.96 3.22 2.96 3.22 0.21 0.23 0.4 0.49 0.56 0.77l1.21-1.33c-0.36-0.35-0.59-0.84-0.59-1.39v-1.61c0-0.41 0.13-0.79 0.34-1.1-0.21-0.32-0.34-0.69-0.34-1.1v-1.62c0-1.06 0.86-1.92 1.91-1.92h4.57v-1.63c0-1.06 0.86-1.92 1.92-1.92h5.26c1.06 0 1.91 0.86 1.91 1.92v1.63h4.58c1.05 0 1.91 0.86 1.91 1.92v1.62c0 0.41-0.13 0.78-0.34 1.1 0.21 0.31 0.34 0.69 0.34 1.1v1.61c0 0.55-0.23 1.04-0.59 1.39 0 0 2.69 2.94 2.69 2.94 0.66 0.72 1.02 1.66 1.02 2.64v22.58c0 2.14-1.71 3.88-3.82 3.88zm-12.66-1.65h8.07s-5.01-5.04-5.01-5.04c-0.34-0.34-0.79-0.53-1.28-0.53-0.48 0-0.93 0.19-1.27 0.53 0 0-2.76 2.77-2.76 2.77l2.25 2.27zm-20.91-44.42c0-0.15-0.13-0.28-0.27-0.28h-5.94c-0.15 0-0.28 0.13-0.28 0.28v1.93h6.49v-1.93zm7.08 3.85c0-0.15-0.13-0.27-0.27-0.27h-20.1c-0.15 0-0.28 0.12-0.28 0.27v1.94c0 0.15 0.13 0.28 0.28 0.28h20.1c0.14 0 0.27-0.13 0.27-0.28v-1.94zm0 4.14c0-0.15-0.13-0.27-0.27-0.27h-20.1c-0.15 0-0.28 0.12-0.28 0.27v1.94c0 0.15 0.13 0.28 0.28 0.28h20.1c0.14 0 0.27-0.13 0.27-0.28v-1.94zm3.4 9.42c0-0.64-0.23-1.24-0.66-1.7 0 0-3.54-3.85-3.54-3.85h-19.05s-3.54 3.85-3.54 3.85c-0.43 0.46-0.66 1.06-0.66 1.7v5.73h5.56c1.31-3.24 4.48-5.53 8.17-5.53 1.5 0 2.98 0.39 4.28 1.12 0.39 0.22 0.54 0.72 0.32 1.12s-0.72 0.54-1.12 0.32c-1.06-0.59-2.26-0.91-3.48-0.91-3.95 0-7.16 3.22-7.16 7.17s3.21 7.16 7.16 7.16c3.94 0 7.16-3.21 7.16-7.16 0-1.48-0.45-2.9-1.29-4.1-0.27-0.38-0.18-0.89 0.19-1.16 0.37-0.26 0.89-0.17 1.15 0.2 0.38 0.56 0.7 1.15 0.95 1.77h5.56v-5.73zm0 7.38h-5.08c0.1 0.54 0.16 1.08 0.16 1.64 0 4.86-3.95 8.82-8.8 8.82-4.86 0-8.8-3.96-8.8-8.82 0-0.56 0.05-1.11 0.15-1.64h-5.08v17.14c0 1.37 1.1 2.49 2.45 2.49h12.5s9.06-9.11 9.06-9.11c0.64-0.65 1.49-1 2.41-1 0.35 0 0.7 0.05 1.03 0.16v-9.68zm15.66-21.13c0-0.15-0.12-0.27-0.27-0.27h-5.26c-0.15 0-0.27 0.12-0.27 0.27v1.63h5.8v-1.63zm6.49 7.37c0-0.15-0.12-0.28-0.27-0.28h-2.85c-0.45 0-0.82-0.37-0.82-0.82 0-0.46 0.37-0.83 0.82-0.83h2.85c0.15 0 0.27-0.12 0.27-0.27v-1.62c0-0.14-0.12-0.27-0.27-0.27h-18.24c-0.15 0-0.27 0.13-0.27 0.27v1.62c0 0.15 0.12 0.27 0.27 0.27h12c0.46 0 0.82 0.37 0.82 0.83 0 0.45-0.36 0.82-0.82 0.82h-12c-0.15 0-0.27 0.13-0.27 0.28v1.61c0 0.15 0.12 0.27 0.27 0.27h18.24c0.15 0 0.27-0.12 0.27-0.27v-1.61zm3.12 8.58c0-0.57-0.21-1.11-0.59-1.52 0 0-3.22-3.53-3.22-3.53h-17.4s-2.42 2.65-2.42 2.65v0.2 7.41h3.59c1.22-2.98 4.13-5.09 7.53-5.09s6.31 2.11 7.53 5.09h0.71c0.46 0 0.82 0.37 0.82 0.83 0 0.45-0.36 0.82-0.82 0.82h-0.24c0.09 0.47 0.13 0.96 0.13 1.45 0 4.51-3.65 8.18-8.13 8.18-4.49 0-8.13-3.67-8.13-8.18 0-0.49 0.04-0.98 0.13-1.45h-3.12v9.11s2.73 2.74 2.73 2.74c0.32 0.33 0.32 0.85 0 1.17s-0.84 0.32-1.16 0l-2.99-3.01c-0.33-0.34-0.78-0.52-1.25-0.52-0.48 0-0.92 0.18-1.25 0.52 0 0-7.9 7.94-7.9 7.94h18.29s-2.71-2.73-2.71-2.73c-0.32-0.32-0.32-0.84 0-1.17 0.32-0.32 0.84-0.32 1.16 0 0 0 0.46 0.47 0.46 0.47s2.76-2.78 2.76-2.78c0.65-0.65 1.51-1.01 2.43-1.01 0.93 0 1.79 0.36 2.44 1.01 0 0 6.17 6.21 6.17 6.21h2.27c1.2 0 2.18-1 2.18-2.23v-15.72h-0.66c-0.45 0-0.82-0.37-0.82-0.82 0-0.46 0.37-0.83 0.82-0.83h0.66v-5.21zm-19 8.31c0 3.6 2.91 6.53 6.49 6.53s6.49-2.93 6.49-6.53-2.91-6.53-6.49-6.53-6.49 2.93-6.49 6.53zm3.47-1.82h6.03c0.46 0 0.83 0.37 0.83 0.83 0 0.45-0.37 0.82-0.83 0.82h-6.03c-0.45 0-0.82-0.37-0.82-0.82 0-0.46 0.37-0.83 0.82-0.83zm1.03 3.2h3.98c0.46 0 0.82 0.37 0.82 0.83 0 0.45-0.36 0.82-0.82 0.82h-3.98c-0.46 0-0.83-0.37-0.83-0.82 0-0.46 0.37-0.83 0.83-0.83zm13.84-0.44c0 0.22-0.09 0.43-0.24 0.59-0.16 0.15-0.37 0.24-0.58 0.24-0.22 0-0.43-0.09-0.58-0.24-0.16-0.16-0.24-0.37-0.24-0.59 0-0.21 0.08-0.43 0.24-0.58 0.15-0.15 0.36-0.24 0.58-0.24 0.21 0 0.42 0.09 0.58 0.24 0.15 0.15 0.24 0.37 0.24 0.58zm-1.7 3.44c-0.15 0.15-0.36 0.24-0.58 0.24s-0.43-0.09-0.58-0.24c-0.15-0.16-0.24-0.37-0.24-0.59 0-0.21 0.09-0.43 0.24-0.58 0.15-0.16 0.36-0.24 0.58-0.24s0.43 0.08 0.58 0.24c0.15 0.15 0.24 0.37 0.24 0.58 0 0.22-0.09 0.43-0.24 0.59zm-0.58 4.28c0.22 0 0.43 0.09 0.58 0.24 0.15 0.16 0.24 0.37 0.24 0.59s-0.09 0.43-0.24 0.58c-0.15 0.16-0.36 0.24-0.58 0.24-0.21 0-0.43-0.08-0.58-0.24-0.15-0.15-0.24-0.37-0.24-0.58 0-0.22 0.09-0.43 0.24-0.59 0.15-0.15 0.37-0.24 0.58-0.24zm0.63 3.75c0.22 0 0.43 0.09 0.58 0.25 0.16 0.15 0.24 0.36 0.24 0.58s-0.08 0.43-0.24 0.58c-0.15 0.16-0.36 0.24-0.58 0.24-0.21 0-0.42-0.08-0.58-0.24-0.15-0.15-0.24-0.36-0.24-0.58s0.09-0.43 0.24-0.58c0.16-0.16 0.37-0.25 0.58-0.25zm0.01-5.77c0-0.22 0.08-0.43 0.24-0.58 0.15-0.16 0.36-0.25 0.58-0.25 0.21 0 0.42 0.09 0.58 0.25 0.15 0.15 0.24 0.36 0.24 0.58s-0.09 0.43-0.24 0.58c-0.16 0.16-0.37 0.24-0.58 0.24-0.22 0-0.43-0.08-0.58-0.24-0.16-0.15-0.24-0.36-0.24-0.58zm-19.98 8.38c-0.22 0-0.43-0.08-0.58-0.24-0.15-0.15-0.24-0.36-0.24-0.58s0.09-0.43 0.24-0.59c0.15-0.15 0.36-0.24 0.58-0.24s0.43 0.09 0.58 0.24c0.15 0.16 0.24 0.37 0.24 0.59s-0.09 0.43-0.24 0.58c-0.15 0.16-0.36 0.24-0.58 0.24zm-4.14-3.12c-0.22 0-0.43-0.09-0.58-0.24-0.16-0.16-0.24-0.37-0.24-0.59s0.08-0.43 0.24-0.58c0.15-0.15 0.36-0.24 0.58-0.24 0.21 0 0.42 0.09 0.58 0.24 0.15 0.15 0.24 0.36 0.24 0.58s-0.09 0.43-0.24 0.59c-0.16 0.15-0.37 0.24-0.58 0.24zm0.06 2.24c0.15 0.15 0.24 0.36 0.24 0.58s-0.09 0.43-0.24 0.58c-0.15 0.16-0.37 0.24-0.58 0.24-0.22 0-0.43-0.08-0.58-0.24-0.15-0.15-0.24-0.36-0.24-0.58s0.09-0.43 0.24-0.58c0.15-0.16 0.36-0.25 0.58-0.25 0.21 0 0.43 0.09 0.58 0.25zm-4.34 0.88c-0.21 0-0.42-0.08-0.58-0.24-0.15-0.15-0.24-0.36-0.24-0.58s0.09-0.43 0.24-0.59c0.16-0.15 0.37-0.24 0.58-0.24 0.22 0 0.43 0.09 0.59 0.24 0.15 0.16 0.23 0.37 0.23 0.59s-0.08 0.43-0.23 0.58c-0.16 0.16-0.37 0.24-0.59 0.24zm3.81-10.47c-0.15-0.15-0.24-0.36-0.24-0.58s0.09-0.43 0.24-0.58c0.15-0.16 0.36-0.25 0.58-0.25 0.21 0 0.42 0.09 0.58 0.25 0.15 0.15 0.24 0.36 0.24 0.58s-0.09 0.43-0.24 0.58c-0.16 0.16-0.37 0.25-0.58 0.25-0.22 0-0.43-0.09-0.58-0.25zm-0.07-4.19c-0.22 0-0.43-0.09-0.58-0.24s-0.24-0.37-0.24-0.58c0-0.22 0.09-0.43 0.24-0.59 0.15-0.15 0.36-0.24 0.58-0.24 0.21 0 0.43 0.09 0.58 0.24 0.15 0.16 0.24 0.37 0.24 0.59 0 0.21-0.09 0.43-0.24 0.58s-0.37 0.24-0.58 0.24zm-1.01 2.21c-0.15 0.15-0.36 0.24-0.58 0.24-0.21 0-0.43-0.09-0.58-0.24-0.15-0.16-0.24-0.37-0.24-0.59 0-0.21 0.09-0.43 0.24-0.58s0.37-0.24 0.58-0.24c0.22 0 0.43 0.09 0.58 0.24s0.24 0.37 0.24 0.58c0 0.22-0.09 0.43-0.24 0.59zm-0.62 2.01c0.22 0 0.43 0.09 0.58 0.24 0.15 0.16 0.24 0.37 0.24 0.59 0 0.21-0.09 0.43-0.24 0.58s-0.36 0.24-0.58 0.24-0.43-0.09-0.58-0.24-0.24-0.37-0.24-0.58c0-0.22 0.09-0.44 0.24-0.59s0.36-0.24 0.58-0.24zm-7.39-6.63h-6.03c-0.45 0-0.82-0.37-0.82-0.82 0-0.46 0.37-0.83 0.82-0.83h6.03c0.46 0 0.82 0.37 0.82 0.83 0 0.45-0.36 0.82-0.82 0.82zm-5.01 1.55h3.99c0.45 0 0.82 0.37 0.82 0.83s-0.37 0.82-0.82 0.82h-3.99c-0.45 0-0.82-0.36-0.82-0.82s0.37-0.83 0.82-0.83zm27.69 14.92c0.15 0.16 0.24 0.37 0.24 0.59 0 0.21-0.09 0.43-0.24 0.58-0.16 0.15-0.37 0.24-0.58 0.24-0.22 0-0.43-0.09-0.58-0.24-0.16-0.15-0.24-0.37-0.24-0.58 0-0.22 0.08-0.43 0.24-0.59 0.15-0.15 0.36-0.24 0.58-0.24 0.21 0 0.42 0.09 0.58 0.24zm-0.57-1.6c-0.15-0.15-0.23-0.37-0.23-0.58 0-0.22 0.08-0.43 0.23-0.59 0.16-0.15 0.37-0.24 0.59-0.24 0.21 0 0.42 0.09 0.58 0.24 0.15 0.16 0.24 0.37 0.24 0.59 0 0.21-0.09 0.43-0.24 0.58-0.16 0.15-0.37 0.24-0.58 0.24-0.22 0-0.43-0.09-0.59-0.24zm3.1 0.52c0.22 0 0.43 0.09 0.58 0.24s0.24 0.37 0.24 0.58c0 0.22-0.09 0.43-0.24 0.59-0.15 0.15-0.36 0.24-0.58 0.24s-0.43-0.09-0.58-0.24c-0.15-0.16-0.24-0.37-0.24-0.59 0-0.21 0.09-0.43 0.24-0.58s0.36-0.24 0.58-0.24z"/></svg><svg xmlns:xlink="http://www.w3.org/1999/xlink" viewBox="0 0 50 47" width="50" height="47" id="icon3" y="100"><path fill="#eb914f" fillRule="evenodd" d="m50 27.15c0-4.06-3.08-7.9-8.45-10.54-11.02-5.99-13.1-15.8-13.12-15.9l-0.14-0.71h-6.58l-0.14 0.71c-0.02 0.1-2.06 9.89-13.1 15.9-5.38 2.64-8.47 6.48-8.47 10.54 0 6.99 8.84 12.56 21.49 13.54 0.5 0.04 0.95 0.07 1.39 0.1 0 0-4.06 0.68-4.06 0.68-0.47 0.08-0.78 0.53-0.71 1.01 0.08 0.43 0.44 0.73 0.85 0.73 0.05 0 0.1 0 0.15-0.01 0 0 3.26-0.55 3.26-0.55l-1.6 1.62c-0.34 0.34-0.34 0.9 0 1.24 0.17 0.17 0.39 0.26 0.61 0.26s0.44-0.09 0.61-0.26c0 0 2.15-2.18 2.15-2.18v2.79c0 0.48 0.38 0.87 0.86 0.87s0.86-0.39 0.86-0.87v-2.79s2.15 2.18 2.15 2.18c0.17 0.17 0.39 0.26 0.61 0.26s0.44-0.09 0.61-0.26c0.34-0.34 0.34-0.89 0-1.24l-1.61-1.63s3.25 0.66 3.25 0.66c0.05 0.01 0.11 0.02 0.17 0.02 0.4 0 0.76-0.29 0.84-0.71 0.09-0.47-0.21-0.93-0.68-1.03 0 0-3.79-0.77-3.79-0.77 0.34-0.02 0.7-0.03 1.09-0.06 12.66-0.73 21.5-6.32 21.5-13.6zm-25.03-19.92c0.32 1.64 0.76 3.65 1.38 6.04 0.4 1.53 0.85 2.9 1.32 4.09 0.3 0.73 0.41 0.99 0.61 1.46 0.17 0.4 0.41 0.95 0.88 2.08 0.73 1.74 1.08 4.06 1 6.72-0.18 6.35-2.7 10.79-5.07 11.49h-0.24c-2.37-0.71-4.88-5.15-5.06-11.49-0.08-2.66 0.27-4.98 1-6.72 0.47-1.13 0.7-1.68 0.88-2.08 0.2-0.47 0.31-0.73 0.6-1.46 0.48-1.19 0.93-2.57 1.32-4.09 0.63-2.39 1.07-4.4 1.38-6.04zm6.92 20.44c0.08-2.95-0.3-5.46-1.14-7.46-0.48-1.14-0.72-1.69-0.89-2.1-0.19-0.45-0.31-0.71-0.59-1.41-0.45-1.12-0.87-2.42-1.25-3.88-0.6-2.28-1.01-4.18-1.32-5.75 1.13 2.65 3.07 6.26 6.16 9.41 0.71 0.72 0.99 0.98 1.48 1.45 0.42 0.39 0.99 0.93 2.13 2.05 1.72 1.67 2.5 3.79 2.32 6.31-0.36 5.28-4.83 9.66-9.83 11.78 1.69-2.43 2.81-6.18 2.93-10.4zm-9.96-14.85c-0.38 1.45-0.8 2.76-1.25 3.88-0.29 0.71-0.4 0.97-0.59 1.42-0.18 0.4-0.42 0.96-0.89 2.09-0.84 2-1.22 4.51-1.14 7.46 0.12 4.2 1.23 7.94 2.91 10.37-4.97-2.14-9.4-6.5-9.76-11.75-0.18-2.52 0.6-4.64 2.32-6.31 1.14-1.12 1.71-1.66 2.13-2.05 0.49-0.47 0.77-0.73 1.48-1.45 3.01-3.06 4.92-6.56 6.06-9.19-0.3 1.53-0.71 3.36-1.27 5.53zm18.82 5.35s0.03 0.01 0.03 0.01c4.77 2.34 7.5 5.61 7.5 8.97 0 5.61-6.85 10.23-16.68 11.55 4.68-2.61 8.55-7.04 8.91-12.29 0.21-3.02-0.77-5.68-2.84-7.7-1.15-1.12-1.73-1.66-2.15-2.06-0.48-0.45-0.75-0.71-1.44-1.41-3.76-3.82-5.71-8.41-6.54-10.8-0.41-1.18-0.74-2.05-1.07-2.68h0.44c0.69 2.48 3.68 10.88 13.84 16.41zm-39.03 8.98c0-3.36 2.73-6.63 7.53-8.98 10.16-5.53 13.15-13.93 13.84-16.41h0.44c-0.33 0.63-0.66 1.5-1.07 2.68-0.83 2.39-2.78 6.98-6.54 10.8-0.69 0.7-0.96 0.96-1.44 1.41-0.42 0.39-0.99 0.94-2.15 2.06-2.07 2.02-3.05 4.68-2.85 7.7 0.36 5.13 4.07 9.49 8.62 12.12-9.67-1.54-16.38-6.07-16.38-11.38z"/></svg><svg xmlns:xlink="http://www.w3.org/1999/xlink" viewBox="0 0 59 56" width="59" height="56" id="icon4" y="147"><path fill="#eb914f" fillRule="evenodd" d="m58.14 16.05c-0.48 0-0.87-0.39-0.87-0.87v-11.62h-0.56v3.19c0 0.48-0.39 0.87-0.87 0.87-0.47 0-0.86-0.39-0.86-0.87v-4.94h-3.91v11.9h3.91v-3.48c0-0.48 0.39-0.87 0.86-0.87 0.48 0 0.87 0.39 0.87 0.87v3.77c0 0.43-0.19 0.82-0.49 1.09v28.08 0.03 0.02c-0.09 2.44-0.6 4.52-1.4 5.71-0.22 0.31-0.56 0.5-0.93 0.52v1.22c0 0.48-0.39 0.87-0.86 0.87-0.48 0-0.87-0.39-0.87-0.87v-1.22c-0.37-0.02-0.71-0.21-0.92-0.52-0.81-1.19-1.32-3.27-1.41-5.71v-0.02-0.03-28.08c-0.3-0.27-0.49-0.66-0.49-1.09v-12.48c0-0.8 0.65-1.45 1.44-1.45h4.49c0.79 0 1.44 0.65 1.44 1.45v0.29h0.85c0.79 0 1.44 0.66 1.44 1.46v11.91c0 0.48-0.39 0.87-0.86 0.87zm-5.62 31.66h1.01c0.48-0.86 0.82-2.33 0.93-4h-2.87c0.11 1.67 0.45 3.14 0.93 4zm-0.96-5.74h2.93v-26.52h-2.93v26.52zm1.47-6.39c-0.48 0-0.87-0.39-0.87-0.87v-8.2c0-0.48 0.39-0.87 0.87-0.87 0.47 0 0.86 0.39 0.86 0.87v8.2c0 0.48-0.39 0.87-0.86 0.87zm0-11.38c-0.48 0-0.87-0.39-0.87-0.87v-0.88c0-0.48 0.39-0.87 0.87-0.87 0.47 0 0.86 0.39 0.86 0.87v0.88c0 0.48-0.39 0.87-0.86 0.87zm-5.73 25.24c0 0.91-0.74 1.66-1.65 1.66h-33.21v3.38c0 0.56-0.31 1.07-0.8 1.34-0.22 0.12-0.47 0.18-0.73 0.18-0.28 0-0.56-0.08-0.81-0.23l-2.28-1.43-2 1.35c-0.25 0.17-0.55 0.26-0.85 0.26-0.25 0-0.49-0.06-0.71-0.17-0.5-0.26-0.82-0.78-0.82-1.35v-3.33h-1c-1.34 0-2.44-1.1-2.44-2.44v-46.22c0-1.35 1.1-2.44 2.44-2.44h43.95c0.79 0 1.44 0.65 1.44 1.45v24.69c0 0.45-0.21 0.86-0.53 1.13v22.17zm-6.16-0.09h1.44v-16.82c0-0.48 0.39-0.87 0.86-0.87 0.48 0 0.87 0.39 0.87 0.87v16.82h1.26v-21.76h-1.26v1.22c0 0.48-0.39 0.87-0.87 0.87-0.47 0-0.86-0.39-0.86-0.87v-1.22h-1.44v21.76zm-35.97 4.68l2.15-1.45c0.15-0.1 0.32-0.15 0.49-0.15 0.15 0 0.31 0.04 0.45 0.13l2.45 1.54v-3h-5.54v2.93zm34.24-52.29h-31.68v36.36c0 0.48-0.39 0.87-0.86 0.87-0.48 0-0.87-0.39-0.87-0.87v-36.36h-3.56c-0.39 0-0.71 0.31-0.71 0.7v46.22c0 0.38 0.32 0.69 0.71 0.69h3.56v-7.88c0-0.48 0.39-0.87 0.87-0.87 0.47 0 0.86 0.39 0.86 0.87v7.88h31.68v-47.61zm6.69 0h-4.96v7.41h4.96v-7.41zm0 9.15h-4.96v6.83h4.96v-6.83zm0 8.57h-4.96v6.39h4.96v-6.39zm-28.58-7.05c1.21 0 2.35 0.43 3.25 1.21 0.9-0.78 2.04-1.21 3.24-1.21 1.21 0 2.35 0.43 3.25 1.21 0.9-0.78 2.04-1.21 3.24-1.21 2.73 0 4.95 2.21 4.95 4.92 0 2.55-1.99 4.67-4.5 4.9v7.42c0 0.48-0.38 0.87-0.86 0.87h-12.15c-0.48 0-0.86-0.39-0.86-0.87v-7.42c-2.51-0.23-4.5-2.35-4.5-4.9 0-2.71 2.22-4.92 4.94-4.92zm-0.05 8.1c0.73 0.01 1.33 0.63 1.33 1.37v6.9h2.38v-4.06c0-0.48 0.39-0.87 0.87-0.87 0.47 0 0.86 0.39 0.86 0.87v4.06h2.21v-4.06c0-0.48 0.39-0.87 0.86-0.87 0.48 0 0.87 0.39 0.87 0.87v4.06h2.37v-6.9c0-0.74 0.61-1.36 1.34-1.37 1.74-0.03 3.16-1.46 3.16-3.18 0-1.75-1.44-3.18-3.21-3.18-0.87 0-1.68 0.34-2.29 0.95-0.25 0.25-0.6 0.4-0.96 0.4s-0.71-0.15-0.96-0.4c-0.61-0.61-1.42-0.95-2.29-0.95-0.86 0-1.67 0.34-2.28 0.95-0.25 0.25-0.6 0.4-0.96 0.4s-0.71-0.15-0.96-0.4c-0.61-0.61-1.42-0.95-2.29-0.95-1.77 0-3.21 1.43-3.21 3.18 0 1.72 1.42 3.15 3.16 3.18zm0.27 15.67h12.55c0.48 0 0.86 0.39 0.86 0.87s-0.38 0.87-0.86 0.87h-12.55c-0.48 0-0.86-0.39-0.86-0.87s0.38-0.87 0.86-0.87zm2.07 3.96h8.41c0.48 0 0.86 0.39 0.86 0.87s-0.38 0.87-0.86 0.87h-8.41c-0.48 0-0.86-0.39-0.86-0.87s0.38-0.87 0.86-0.87z"/></svg><svg xmlns:xlink="http://www.w3.org/1999/xlink" viewBox="0 0 7 12" width="7" height="12" id="next" y="203"><path fill="#fff" fillRule="evenodd" d="m0.59 5.75s5.38-5.68 5.38-5.68c0.13-0.13 0.33-0.13 0.46 0 0.13 0.14 0.13 0.35 0 0.49 0 0-5.15 5.43-5.15 5.43s5.15 5.43 5.15 5.43c0.13 0.13 0.13 0.35 0 0.48-0.06 0.06-0.15 0.1-0.23 0.1s-0.16-0.03-0.23-0.1c0 0-5.37-5.67-5.37-5.67-0.13-0.13-0.13-0.35-0.01-0.48z"/></svg></svg>
