<?xml version="1.0" encoding="utf-8"?>
<svg xmlns="http://www.w3.org/2000/svg"
	xmlns:xlink="http://www.w3.org/1999/xlink"
	width="59px" height="56px" viewBox="0 0 59 56">
<path fillRule="evenodd" d="M 58.14 16.05C 57.66 16.05 57.27 15.66 57.27 15.18 57.27 15.18 57.27 3.56 57.27 3.56 57.27 3.56 56.71 3.56 56.71 3.56 56.71 3.56 56.71 6.75 56.71 6.75 56.71 7.23 56.32 7.62 55.84 7.62 55.37 7.62 54.98 7.23 54.98 6.75 54.98 6.75 54.98 1.81 54.98 1.81 54.98 1.81 51.07 1.81 51.07 1.81 51.07 1.81 51.07 13.71 51.07 13.71 51.07 13.71 54.98 13.71 54.98 13.71 54.98 13.71 54.98 10.23 54.98 10.23 54.98 9.75 55.37 9.36 55.84 9.36 56.32 9.36 56.71 9.75 56.71 10.23 56.71 10.23 56.71 14 56.71 14 56.71 14.43 56.52 14.82 56.22 15.09 56.22 15.09 56.22 43.17 56.22 43.17 56.22 43.18 56.22 43.19 56.22 43.2 56.22 43.2 56.22 43.21 56.22 43.22 56.13 45.66 55.62 47.74 54.82 48.93 54.6 49.24 54.26 49.43 53.89 49.45 53.89 49.45 53.89 50.67 53.89 50.67 53.89 51.15 53.5 51.54 53.03 51.54 52.55 51.54 52.16 51.15 52.16 50.67 52.16 50.67 52.16 49.45 52.16 49.45 51.79 49.43 51.45 49.24 51.24 48.93 50.43 47.74 49.92 45.66 49.83 43.22 49.83 43.21 49.83 43.2 49.83 43.2 49.83 43.19 49.83 43.18 49.83 43.17 49.83 43.17 49.83 15.09 49.83 15.09 49.53 14.82 49.34 14.43 49.34 14 49.34 14 49.34 1.52 49.34 1.52 49.34 0.72 49.99 0.07 50.78 0.07 50.78 0.07 55.27 0.07 55.27 0.07 56.06 0.07 56.71 0.72 56.71 1.52 56.71 1.52 56.71 1.81 56.71 1.81 56.71 1.81 57.56 1.81 57.56 1.81 58.35 1.81 59 2.47 59 3.27 59 3.27 59 15.18 59 15.18 59 15.66 58.61 16.05 58.14 16.05ZM 52.52 47.71C 52.52 47.71 53.53 47.71 53.53 47.71 54.01 46.85 54.35 45.38 54.46 43.71 54.46 43.71 51.59 43.71 51.59 43.71 51.7 45.38 52.04 46.85 52.52 47.71ZM 51.56 41.97C 51.56 41.97 54.49 41.97 54.49 41.97 54.49 41.97 54.49 15.45 54.49 15.45 54.49 15.45 51.56 15.45 51.56 15.45 51.56 15.45 51.56 41.97 51.56 41.97ZM 53.03 35.58C 52.55 35.58 52.16 35.19 52.16 34.71 52.16 34.71 52.16 26.51 52.16 26.51 52.16 26.03 52.55 25.64 53.03 25.64 53.5 25.64 53.89 26.03 53.89 26.51 53.89 26.51 53.89 34.71 53.89 34.71 53.89 35.19 53.5 35.58 53.03 35.58ZM 53.03 24.2C 52.55 24.2 52.16 23.81 52.16 23.33 52.16 23.33 52.16 22.45 52.16 22.45 52.16 21.97 52.55 21.58 53.03 21.58 53.5 21.58 53.89 21.97 53.89 22.45 53.89 22.45 53.89 23.33 53.89 23.33 53.89 23.81 53.5 24.2 53.03 24.2ZM 47.3 49.44C 47.3 50.35 46.56 51.1 45.65 51.1 45.65 51.1 12.44 51.1 12.44 51.1 12.44 51.1 12.44 54.48 12.44 54.48 12.44 55.04 12.13 55.55 11.64 55.82 11.42 55.94 11.17 56 10.91 56 10.63 56 10.35 55.92 10.1 55.77 10.1 55.77 7.82 54.34 7.82 54.34 7.82 54.34 5.82 55.69 5.82 55.69 5.57 55.86 5.27 55.95 4.97 55.95 4.72 55.95 4.48 55.89 4.26 55.78 3.76 55.52 3.44 55 3.44 54.43 3.44 54.43 3.44 51.1 3.44 51.1 3.44 51.1 2.44 51.1 2.44 51.1 1.1 51.1-0 50-0 48.66-0 48.66-0 2.44-0 2.44-0 1.09 1.1-0 2.44-0 2.44-0 46.39-0 46.39-0 47.18-0 47.83 0.65 47.83 1.45 47.83 1.45 47.83 26.14 47.83 26.14 47.83 26.59 47.62 27 47.3 27.27 47.3 27.27 47.3 49.44 47.3 49.44ZM 41.14 49.35C 41.14 49.35 42.58 49.35 42.58 49.35 42.58 49.35 42.58 32.53 42.58 32.53 42.58 32.05 42.97 31.66 43.44 31.66 43.92 31.66 44.31 32.05 44.31 32.53 44.31 32.53 44.31 49.35 44.31 49.35 44.31 49.35 45.57 49.35 45.57 49.35 45.57 49.35 45.57 27.59 45.57 27.59 45.57 27.59 44.31 27.59 44.31 27.59 44.31 27.59 44.31 28.81 44.31 28.81 44.31 29.29 43.92 29.68 43.44 29.68 42.97 29.68 42.58 29.29 42.58 28.81 42.58 28.81 42.58 27.59 42.58 27.59 42.58 27.59 41.14 27.59 41.14 27.59 41.14 27.59 41.14 49.35 41.14 49.35ZM 5.17 54.03C 5.17 54.03 7.32 52.58 7.32 52.58 7.47 52.48 7.64 52.43 7.81 52.43 7.96 52.43 8.12 52.47 8.26 52.56 8.26 52.56 10.71 54.1 10.71 54.1 10.71 54.1 10.71 51.1 10.71 51.1 10.71 51.1 5.17 51.1 5.17 51.1 5.17 51.1 5.17 54.03 5.17 54.03ZM 39.41 1.74C 39.41 1.74 7.73 1.74 7.73 1.74 7.73 1.74 7.73 38.1 7.73 38.1 7.73 38.58 7.34 38.97 6.87 38.97 6.39 38.97 6 38.58 6 38.1 6 38.1 6 1.74 6 1.74 6 1.74 2.44 1.74 2.44 1.74 2.05 1.74 1.73 2.05 1.73 2.44 1.73 2.44 1.73 48.66 1.73 48.66 1.73 49.04 2.05 49.35 2.44 49.35 2.44 49.35 6 49.35 6 49.35 6 49.35 6 41.47 6 41.47 6 40.99 6.39 40.6 6.87 40.6 7.34 40.6 7.73 40.99 7.73 41.47 7.73 41.47 7.73 49.35 7.73 49.35 7.73 49.35 39.41 49.35 39.41 49.35 39.41 49.35 39.41 1.74 39.41 1.74ZM 46.1 1.74C 46.1 1.74 41.14 1.74 41.14 1.74 41.14 1.74 41.14 9.15 41.14 9.15 41.14 9.15 46.1 9.15 46.1 9.15 46.1 9.15 46.1 1.74 46.1 1.74ZM 46.1 10.89C 46.1 10.89 41.14 10.89 41.14 10.89 41.14 10.89 41.14 17.72 41.14 17.72 41.14 17.72 46.1 17.72 46.1 17.72 46.1 17.72 46.1 10.89 46.1 10.89ZM 46.1 19.46C 46.1 19.46 41.14 19.46 41.14 19.46 41.14 19.46 41.14 25.85 41.14 25.85 41.14 25.85 46.1 25.85 46.1 25.85 46.1 25.85 46.1 19.46 46.1 19.46ZM 17.52 12.41C 18.73 12.41 19.87 12.84 20.77 13.62 21.67 12.84 22.81 12.41 24.01 12.41 25.22 12.41 26.36 12.84 27.26 13.62 28.16 12.84 29.3 12.41 30.5 12.41 33.23 12.41 35.45 14.62 35.45 17.33 35.45 19.88 33.46 22 30.95 22.23 30.95 22.23 30.95 29.65 30.95 29.65 30.95 30.13 30.57 30.52 30.09 30.52 30.09 30.52 17.94 30.52 17.94 30.52 17.46 30.52 17.08 30.13 17.08 29.65 17.08 29.65 17.08 22.23 17.08 22.23 14.57 22 12.58 19.88 12.58 17.33 12.58 14.62 14.8 12.41 17.52 12.41ZM 17.47 20.51C 18.2 20.52 18.8 21.14 18.8 21.88 18.8 21.88 18.8 28.78 18.8 28.78 18.8 28.78 21.18 28.78 21.18 28.78 21.18 28.78 21.18 24.72 21.18 24.72 21.18 24.24 21.57 23.85 22.05 23.85 22.52 23.85 22.91 24.24 22.91 24.72 22.91 24.72 22.91 28.78 22.91 28.78 22.91 28.78 25.12 28.78 25.12 28.78 25.12 28.78 25.12 24.72 25.12 24.72 25.12 24.24 25.51 23.85 25.98 23.85 26.46 23.85 26.85 24.24 26.85 24.72 26.85 24.72 26.85 28.78 26.85 28.78 26.85 28.78 29.22 28.78 29.22 28.78 29.22 28.78 29.22 21.88 29.22 21.88 29.22 21.14 29.83 20.52 30.56 20.51 32.3 20.48 33.72 19.05 33.72 17.33 33.72 15.58 32.28 14.15 30.51 14.15 29.64 14.15 28.83 14.49 28.22 15.1 27.97 15.35 27.62 15.5 27.26 15.5 26.9 15.5 26.55 15.35 26.3 15.1 25.69 14.49 24.88 14.15 24.01 14.15 23.15 14.15 22.34 14.49 21.73 15.1 21.48 15.35 21.13 15.5 20.77 15.5 20.41 15.5 20.06 15.35 19.81 15.1 19.2 14.49 18.39 14.15 17.52 14.15 15.75 14.15 14.31 15.58 14.31 17.33 14.31 19.05 15.73 20.48 17.47 20.51ZM 17.74 36.18C 17.74 36.18 30.29 36.18 30.29 36.18 30.77 36.18 31.15 36.57 31.15 37.05 31.15 37.53 30.77 37.92 30.29 37.92 30.29 37.92 17.74 37.92 17.74 37.92 17.26 37.92 16.88 37.53 16.88 37.05 16.88 36.57 17.26 36.18 17.74 36.18ZM 19.81 40.14C 19.81 40.14 28.22 40.14 28.22 40.14 28.7 40.14 29.08 40.53 29.08 41.01 29.08 41.49 28.7 41.88 28.22 41.88 28.22 41.88 19.81 41.88 19.81 41.88 19.33 41.88 18.95 41.49 18.95 41.01 18.95 40.53 19.33 40.14 19.81 40.14Z" fill="rgb(235,145,79)"/></svg>